REM MD5 0df79e09d7fe38cd1923e24e5e86b3a8
FILE "Euro Demo 77 (Europe).bin" BINARY
  TRACK 01 MODE2/2352
    INDEX 01 00:00:00
  TRACK 02 AUDIO
    INDEX 00 44:58:45
    INDEX 01 45:00:45
  TRACK 03 AUDIO
    INDEX 00 48:02:02
    INDEX 01 48:04:02
  TRACK 04 AUDIO
    INDEX 00 51:44:10
    INDEX 01 51:46:10
REM LEADOUT 54:47:42
